<?xml version="1.0" encoding="UTF-8"?>
<svg width="66px" height="50px" viewBox="0 0 66 50" version="1.1" xmlns="http://www.w3.org/2000/svg" xmlns:xlink="http://www.w3.org/1999/xlink">
    <!-- Generator: Sketch 60 (88103) - https://sketch.com -->
    <title>DN Logo/White/Vertical</title>
    <desc>Created with Sketch.</desc>
    <g id="Symbols" stroke="none" stroke-width="1" fill="none" fill-rule="evenodd">
        <g id="Component/Navigation/Desktop/Negative/T1/Language-Select" transform="translate(-141.000000, -15.000000)" fill="#FFFFFF">
            <g id="DN-Logo/White/Vertical" transform="translate(140.000000, 14.000000)">
                <path d="M29.6522625,38.387325 L29.6522625,20.1659 C29.6522625,15.6706738 31.2917451,11.5534437 33.9999694,8.37245059 C37.3131125,4.480575 42.2273625,1.991825 47.7158625,1.945075 C57.8243625,1.858825 66.0951125,10.352575 66.0951125,20.461325 L66.0951125,38.387325 L57.3996125,38.387325 L57.3996125,20.368575 C57.3996125,15.185075 53.3431125,10.797825 48.1618625,10.644075 C42.7927602,10.4847596 38.3717279,14.7937805 38.3477108,20.1221923 C38.3477452,20.1367409 38.3477625,20.1512935 38.3477625,20.16585 L38.3477625,38.387325 L29.6522625,38.387325 Z M1.9048875,1.94435 L20.1261375,1.94435 C25.6781375,1.94435 30.6551375,4.4436 33.9998875,8.37235 C31.2918875,11.55335 29.6521375,15.6706 29.6521375,20.16585 C29.6521375,14.9131 25.3788875,10.63985 20.1261375,10.63985 L10.6001375,10.63985 L10.6001375,29.6921 L20.1261375,29.6921 C25.3788875,29.6921 29.6521375,25.4186 29.6521375,20.16585 L29.6521375,35.69135 C26.8783875,37.3996 23.6158875,38.38735 20.1261375,38.38735 L1.9048875,38.38735 L1.9048875,1.94435 Z M42.7800625,43.38465 C43.0695625,43.38465 43.3055625,43.6204 43.3055625,43.9104 C43.3055625,44.1999 43.0695625,44.43565 42.7800625,44.43565 C42.4903125,44.43565 42.2543125,44.1999 42.2543125,43.9104 C42.2543125,43.6204 42.4903125,43.38465 42.7800625,43.38465 Z M8.8518125,43.38465 C9.1415625,43.38465 9.3773125,43.6204 9.3773125,43.9104 C9.3773125,44.1999 9.1415625,44.43565 8.8518125,44.43565 C8.5620625,44.43565 8.3265625,44.1999 8.3265625,43.9104 C8.3265625,43.6204 8.5620625,43.38465 8.8518125,43.38465 Z M26.2518125,49.94415 L26.2518125,43.03815 L27.1015625,43.03815 L27.1015625,49.94415 L26.2518125,49.94415 Z M52.5538125,47.48365 L52.5538125,47.4649 C52.5538125,46.35215 51.7065625,45.6874 50.8875625,45.6874 C49.9335625,45.6874 49.2673125,46.4184 49.2673125,47.4649 L49.2673125,47.48365 C49.2673125,48.5189 49.9488125,49.27065 50.8875625,49.27065 C51.9168125,49.27065 52.5538125,48.3429 52.5538125,47.48365 Z M52.5258125,45.7934 L52.5258125,43.03815 L53.3758125,43.03815 L53.3758125,49.94415 L52.5258125,49.94415 L52.5258125,49.12215 C52.0488125,49.74365 51.4685625,50.04615 50.7575625,50.04615 C49.6143125,50.04615 48.3990625,49.15115 48.3990625,47.4929 L48.3990625,47.47415 C48.3990625,45.80965 49.6143125,44.9114 50.7575625,44.9114 C51.4680625,44.9114 52.0620625,45.2079 52.5258125,45.7934 Z M40.2925625,48.39065 L40.2925625,43.3164 L41.1425625,43.3164 L41.1425625,49.94415 L40.4573125,49.94415 L40.4370625,49.9184 L36.3665625,44.7489 L36.3665625,49.94415 L35.5163125,49.94415 L35.5163125,43.3164 L36.3035625,43.3164 L40.2925625,48.39065 Z M31.8175625,47.48365 L31.8175625,47.4649 C31.8175625,46.35215 30.9703125,45.6874 30.1510625,45.6874 C29.1973125,45.6874 28.5310625,46.4184 28.5310625,47.4649 L28.5310625,47.48365 C28.5310625,48.5189 29.2123125,49.27065 30.1510625,49.27065 C31.1805625,49.27065 31.8175625,48.3429 31.8175625,47.48365 Z M31.7898125,45.7934 L31.7898125,43.03815 L32.6395625,43.03815 L32.6395625,49.94415 L31.7898125,49.94415 L31.7898125,49.12215 C31.3125625,49.74365 30.7323125,50.04615 30.0213125,50.04615 C28.8780625,50.04615 27.6625625,49.15115 27.6625625,47.4929 L27.6625625,47.47415 C27.6625625,45.80965 28.8780625,44.9114 30.0213125,44.9114 C30.7318125,44.9114 31.3258125,45.2079 31.7898125,45.7934 Z M42.3135625,49.94415 L42.3135625,45.0134 L43.1633125,45.0134 L43.1633125,49.94415 L42.3135625,49.94415 Z M24.9533125,47.50215 L24.9533125,47.48365 C24.9533125,46.47115 24.2010625,45.67815 23.2405625,45.67815 C22.2800625,45.67815 21.5558125,46.44615 21.5558125,47.4649 L21.5558125,47.48365 C21.5558125,48.4909 22.3038125,49.27965 23.2590625,49.27965 C24.2250625,49.27965 24.9533125,48.5154 24.9533125,47.50215 Z M23.2590625,44.9114 C24.6963125,44.9114 25.8218125,46.03315 25.8218125,47.4649 L25.8218125,47.48365 C25.8218125,48.92565 24.6880625,50.05565 23.2405625,50.05565 C21.8088125,50.05565 20.6873125,48.93365 20.6873125,47.50215 L20.6873125,47.48365 C20.6873125,46.04115 21.8168125,44.9114 23.2590625,44.9114 Z M48.5630625,45.01365 L46.6923125,47.4189 L48.6363125,49.94415 L47.6393125,49.94415 L46.1890625,48.03165 L44.7295625,49.94415 L43.7600625,49.94415 L45.6953125,47.4369 L43.8348125,45.01365 L44.8220625,45.01365 L46.2078125,46.8244 L47.5930625,45.01365 L48.5630625,45.01365 Z M65.2895625,43.7564 C64.7665625,43.7564 64.5230625,44.0589 64.5230625,44.70865 L64.5230625,45.03015 L66.0438125,45.03015 L66.0438125,45.77815 L64.5323125,45.77815 L64.5323125,49.9424 L63.6820625,49.9424 L63.6820625,45.77815 L63.0238125,45.77815 L63.0238125,45.02115 L63.6820625,45.02115 L63.6820625,44.6714 C63.6820625,44.11915 63.8333125,43.67615 64.1193125,43.3899 C64.3750625,43.1344 64.7475625,42.99915 65.1968125,42.99915 C65.5273125,42.99915 65.7623125,43.0354 66.0080625,43.12365 L66.0530625,43.1399 L66.0530625,43.89915 L65.9665625,43.8744 C65.6923125,43.79615 65.5125625,43.7564 65.2895625,43.7564 Z M8.4210625,49.94415 L8.4210625,45.1999 L9.2710625,45.1999 L9.2710625,49.94415 L8.4210625,49.94415 Z M6.8510625,46.6489 L6.8510625,46.63015 C6.8510625,45.1579 5.7730625,44.1294 4.2293125,44.1294 L2.7763125,44.1294 L2.7763125,49.13115 L4.2293125,49.13115 C5.7730625,49.13115 6.8510625,48.1104 6.8510625,46.6489 Z M4.2293125,43.3164 C6.2678125,43.3164 7.7475625,44.7024 7.7475625,46.61165 L7.7475625,46.63015 C7.7475625,48.5504 6.2678125,49.94415 4.2293125,49.94415 L1.9078125,49.94415 L1.9078125,43.3164 L4.2293125,43.3164 Z M58.1453125,47.50215 L58.1453125,47.48365 C58.1453125,46.47115 57.3930625,45.67815 56.4325625,45.67815 C55.4723125,45.67815 54.7478125,46.44615 54.7478125,47.4649 L54.7478125,47.48365 C54.7478125,48.4909 55.4958125,49.27965 56.4513125,49.27965 C57.4170625,49.27965 58.1453125,48.5154 58.1453125,47.50215 Z M56.4513125,44.9114 C57.8883125,44.9114 59.0138125,46.03315 59.0138125,47.4649 L59.0138125,47.48365 C59.0138125,48.92565 57.8798125,50.05565 56.4325625,50.05565 C55.0008125,50.05565 53.8790625,48.93365 53.8790625,47.50215 L53.8790625,47.48365 C53.8790625,46.04115 55.0090625,44.9114 56.4513125,44.9114 Z M19.3663125,47.4929 L19.3663125,47.47415 C19.3663125,46.4389 18.6850625,45.6874 17.7463125,45.6874 C16.7170625,45.6874 16.0800625,46.6099 16.0800625,47.4649 L16.0800625,47.48365 C16.0800625,48.60215 16.9273125,49.27065 17.7463125,49.27065 C18.7003125,49.27065 19.3663125,48.5394 19.3663125,47.4929 Z M17.8763125,44.9114 C19.0195625,44.9114 20.2348125,45.80665 20.2348125,47.4649 L20.2348125,47.48365 C20.2348125,49.14815 19.0195625,50.04615 17.8763125,50.04615 C17.1655625,50.04615 16.5718125,49.74965 16.1078125,49.16415 L16.1078125,49.94415 L15.2578125,49.94415 L15.2578125,43.03815 L16.1078125,43.03815 L16.1078125,45.83565 C16.5848125,45.21415 17.1653125,44.9114 17.8763125,44.9114 Z M60.3988125,46.0459 C60.8178125,45.30965 61.5078125,44.8984 62.2905625,44.9284 L62.3558125,44.93115 L62.3558125,45.8339 L62.2320625,45.8339 C61.1185625,45.8339 60.3988125,46.67015 60.3988125,47.9639 L60.3988125,49.9424 L59.5488125,49.9424 L59.5488125,45.0119 L60.3988125,45.0119 L60.3988125,46.0459 Z M10.8593125,47.12815 L13.7948125,47.12815 C13.7028125,46.40015 13.2773125,45.65015 12.3403125,45.65015 C11.5848125,45.65015 10.9845625,46.25415 10.8593125,47.12815 Z M12.3588125,44.9114 C13.7365625,44.9114 14.6620625,45.96015 14.6620625,47.52065 C14.6620625,47.5874 14.6620625,47.66265 14.6523125,47.77665 L14.6470625,47.8389 L10.8585625,47.8389 C10.9783125,48.7149 11.6178125,49.2984 12.4703125,49.2984 C13.0405625,49.2984 13.5053125,49.0899 13.9328125,48.64215 L13.9783125,48.5949 L14.5233125,49.08265 L14.4778125,49.1334 C13.9058125,49.77115 13.2808125,50.05565 12.4518125,50.05565 C11.0488125,50.05565 9.9910625,48.9499 9.9910625,47.48365 C9.9910625,46.01715 11.0090625,44.9114 12.3588125,44.9114 Z" id="Shape"></path>
            </g>
        </g>
    </g>
</svg>